<?xml version="1.0" encoding="UTF-8" standalone="no"?>
<!DOCTYPE svg PUBLIC "-//W3C//DTD SVG 1.1//EN" "http://www.w3.org/Graphics/SVG/1.1/DTD/svg11.dtd">
<svg xmlns="http://www.w3.org/2000/svg" version="1.1" viewBox="0.00 0.00 1063.00 1071.00">
<g stroke-width="2.00" fill="none" stroke-linecap="butt">
<path stroke="#368097" vector-effect="non-scaling-stroke" d="
  M 74.72 400.57
  L 74.33 400.31"
/>
<path stroke="#368097" vector-effect="non-scaling-stroke" d="
  M 53.00 404.28
  Q 52.82 404.60 52.88 404.97"
/>
<path stroke="#368097" vector-effect="non-scaling-stroke" d="
  M 70.06 410.53
  Q 69.70 410.41 69.64 410.19"
/>
<path stroke="#368097" vector-effect="non-scaling-stroke" d="
  M 69.49 411.98
  Q 69.37 411.79 68.94 411.75"
/>
<path stroke="#368097" vector-effect="non-scaling-stroke" d="
  M 36.28 426.21
  Q 36.21 426.69 36.34 427.20"
/>
<path stroke="#368097" vector-effect="non-scaling-stroke" d="
  M 35.70 425.91
  Q 35.95 425.60 35.97 425.03"
/>
</g>
<ellipse fill="#69e0e3" cx="0.00" cy="0.00" transform="translate(186.02,324.67) rotate(-14.6)" rx="0.94" ry="0.46"/>
<ellipse fill="#69e0e3" cx="0.00" cy="0.00" transform="translate(175.61,326.43) rotate(-18.4)" rx="1.92" ry="0.60"/>
<ellipse fill="#69e0e3" cx="0.00" cy="0.00" transform="translate(165.80,328.45) rotate(-18.8)" rx="2.45" ry="0.79"/>
<ellipse fill="#69e0e3" cx="0.00" cy="0.00" transform="translate(155.94,331.55) rotate(-20.8)" rx="3.14" ry="1.09"/>
<ellipse fill="#69e0e3" cx="0.00" cy="0.00" transform="translate(130.36,333.67) rotate(-23.5)" rx="1.36" ry="0.65"/>
<ellipse fill="#69e0e3" cx="0.00" cy="0.00" transform="translate(145.91,335.40) rotate(-23.9)" rx="3.14" ry="1.47"/>
<ellipse fill="#69e0e3" cx="0.00" cy="0.00" transform="translate(136.42,339.84) rotate(-25.0)" rx="3.39" ry="1.81"/>
<ellipse fill="#69e0e3" cx="0.00" cy="0.00" transform="translate(121.09,338.90) rotate(-22.7)" rx="1.96" ry="0.83"/>
<ellipse fill="#69e0e3" cx="0.00" cy="0.00" transform="translate(127.33,345.01) rotate(-31.8)" rx="4.01" ry="2.02"/>
<ellipse fill="#69e0e3" cx="0.00" cy="0.00" transform="translate(111.69,345.33) rotate(-35.1)" rx="2.30" ry="1.10"/>
<ellipse fill="#69e0e3" cx="0.00" cy="0.00" transform="translate(118.62,350.85) rotate(-33.1)" rx="4.21" ry="2.30"/>
<ellipse fill="#69e0e3" cx="0.00" cy="0.00" transform="translate(103.22,352.04) rotate(-40.1)" rx="2.80" ry="1.37"/>
<ellipse fill="#69e0e3" cx="0.00" cy="0.00" transform="translate(88.84,352.70) rotate(-32.8)" rx="0.87" ry="0.67"/>
<ellipse fill="#69e0e3" cx="0.00" cy="0.00" transform="translate(110.40,357.19) rotate(-37.0)" rx="4.69" ry="2.50"/>
<ellipse fill="#69e0e3" cx="0.00" cy="0.00" transform="translate(94.93,359.64) rotate(-50.6)" rx="3.19" ry="1.81"/>
<ellipse fill="#69e0e3" cx="0.00" cy="0.00" transform="translate(81.22,360.83) rotate(-51.2)" rx="1.60" ry="0.92"/>
<path fill="#69e0e3" d="
  M 103.26 359.91
  A 1.11 1.11 0.0 0 1 104.82 359.81
  L 105.03 359.98
  A 4.05 3.48 -48.8 0 1 104.98 365.32
  L 104.00 366.44
  A 4.05 3.48 -48.8 0 1 98.71 367.19
  L 98.51 367.01
  A 1.11 1.11 0.0 0 1 98.41 365.45
  L 103.26 359.91
  Z"
/>
<ellipse fill="#69e0e3" cx="0.00" cy="0.00" transform="translate(87.35,367.69) rotate(-46.6)" rx="3.71" ry="2.10"/>
<ellipse fill="#69e0e3" cx="0.00" cy="0.00" transform="translate(95.22,371.57) rotate(-51.2)" rx="4.64" ry="2.39"/>
<path fill="#69e0e3" d="
  M 72.76 372.65
  A 0.12 0.12 0.0 0 1 72.59 372.67
  L 72.56 372.64
  A 2.62 1.84 -51.1 0 1 72.77 369.45
  L 72.91 369.28
  A 2.62 1.84 -51.1 0 1 75.99 368.39
  L 76.02 368.42
  A 0.12 0.12 0.0 0 1 76.04 368.59
  L 72.76 372.65
  Z"
/>
<ellipse fill="#69e0e3" cx="0.00" cy="0.00" transform="translate(80.38,368.90) rotate(-145.5)" rx="1.00" ry="0.31"/>
<ellipse fill="#69e0e3" cx="0.00" cy="0.00" transform="translate(80.49,376.15) rotate(-53.8)" rx="4.17" ry="2.33"/>
<path fill="#69e0e3" d="
  M 85.54 382.68
  Q 85.59 380.09 87.08 377.24
  A 0.90 0.89 3.5 0 1 87.57 376.81
  L 90.20 375.86
  A 0.86 0.86 0.0 0 1 91.32 376.47
  C 92.22 380.40 89.49 382.73 86.05 383.14
  A 0.46 0.45 -2.8 0 1 85.54 382.68
  Z"
/>
<ellipse fill="#69e0e3" cx="0.00" cy="0.00" transform="translate(66.99,379.41) rotate(-52.0)" rx="2.92" ry="1.52"/>
<path fill="#69e0e3" d="
  M 71.01 388.40
  A 1.09 1.09 0.0 0 1 70.56 386.92
  L 72.12 383.97
  A 4.33 2.28 -62.2 0 1 76.15 381.20
  L 76.31 381.29
  A 4.33 2.28 -62.2 0 1 76.31 386.18
  L 74.75 389.14
  A 1.09 1.09 0.0 0 1 73.28 389.59
  L 71.01 388.40
  Z"
/>
<ellipse fill="#69e0e3" cx="0.00" cy="0.00" transform="translate(52.33,384.57) rotate(-47.7)" rx="1.04" ry="0.79"/>
<ellipse fill="#69e0e3" cx="0.00" cy="0.00" transform="translate(82.36,387.80) rotate(-56.6)" rx="3.72" ry="2.11"/>
<path fill="#69e0e3" d="
  M 63.14 387.12
  A 0.47 0.47 0.0 0 1 63.34 387.75
  L 62.67 389.00
  A 6.66 1.56 -61.7 0 1 58.14 394.12
  A 6.66 1.56 -61.7 0 1 59.92 387.52
  L 60.59 386.27
  A 0.47 0.47 0.0 0 1 61.22 386.08
  L 63.14 387.12
  Z"
/>
<path fill="#69e0e3" d="
  M 50.13 451.51
  A 0.48 0.47 46.9 0 1 49.31 451.48
  C 47.95 448.96 48.97 445.32 50.12 442.73
  A 5.12 5.02 -33.6 0 0 50.57 440.60
  Q 50.56 437.34 50.86 435.81
  C 53.82 420.69 59.39 406.37 66.15 393.39
  Q 67.14 391.49 68.58 390.23
  A 1.37 1.36 -36.8 0 1 70.62 390.52
  C 72.90 394.07 70.31 397.46 67.34 399.37
  A 0.96 0.96 0.0 0 0 66.90 400.23
  C 67.04 403.24 65.52 405.84 63.19 409.76
  A 10.23 10.21 68.9 0 0 62.20 412.00
  Q 60.89 416.33 58.99 419.74
  A 5.04 4.90 -28.0 0 0 58.39 421.61
  Q 57.90 426.07 55.47 429.25
  A 3.22 3.17 -26.4 0 0 54.81 431.16
  Q 54.77 436.01 52.27 440.93
  A 1.66 1.65 -35.0 0 0 52.10 441.88
  Q 52.79 447.31 50.13 451.51
  Z"
/>
<path fill="#69e0e3" d="
  M 74.72 400.57
  L 74.33 400.31
  Q 74.40 396.20 76.91 393.59
  A 0.92 0.92 0.0 0 1 78.43 393.89
  C 79.68 397.10 77.41 399.41 74.72 400.57
  Z"
/>
<ellipse fill="#69e0e3" cx="0.00" cy="0.00" transform="translate(46.63,395.66) rotate(-63.7)" rx="2.28" ry="0.58"/>
<path fill="#69e0e3" d="
  M 53.00 404.28
  Q 52.82 404.60 52.88 404.97
  C 53.76 409.03 52.29 412.11 50.03 416.07
  A 3.22 3.12 62.5 0 0 49.63 417.41
  Q 49.32 422.02 47.02 426.73
  A 2.62 2.43 64.6 0 0 46.80 427.43
  L 41.52 460.41
  A 1.74 1.74 0.0 0 1 39.66 461.87
  L 39.58 461.86
  A 1.99 1.98 4.6 0 1 37.78 459.75
  Q 38.74 446.14 39.66 442.07
  C 41.03 435.99 41.43 432.22 43.13 427.39
  Q 43.93 425.13 45.45 419.39
  A 6.57 6.27 69.0 0 1 46.08 417.88
  C 48.39 413.85 48.40 409.01 51.67 404.93
  C 53.06 403.20 52.80 399.78 53.92 398.03
  Q 54.78 396.69 57.18 395.14
  A 0.33 0.33 0.0 0 1 57.68 395.39
  Q 58.02 399.93 54.92 403.41
  A 1.40 1.40 0.0 0 1 54.10 403.86
  Q 53.47 403.97 53.00 404.28
  Z"
/>
<path fill="#02204a" d="
  M 74.72 400.57
  Q 74.25 401.01 74.33 400.31
  L 74.72 400.57
  Z"
/>
<path fill="#69e0e3" d="
  M 70.06 410.53
  Q 69.70 410.41 69.64 410.19
  Q 69.83 405.10 73.55 401.87
  A 0.33 0.33 0.0 0 1 74.09 402.13
  Q 73.95 407.21 70.06 410.53
  Z"
/>
<ellipse fill="#69e0e3" cx="0.00" cy="0.00" transform="translate(41.40,407.56) rotate(-68.0)" rx="4.07" ry="0.83"/>
<path fill="#02204a" d="
  M 53.00 404.28
  L 52.88 404.97
  Q 52.82 404.60 53.00 404.28
  Z"
/>
<path fill="#02204a" d="
  M 69.64 410.19
  Q 69.70 410.41 70.06 410.53
  Q 69.82 410.85 69.50 411.00
  L 69.64 410.19
  Z"
/>
<path fill="#02204a" d="
  M 69.50 411.00
  Q 69.60 411.47 69.49 411.98
  Q 69.37 411.79 68.94 411.75
  Q 69.11 411.22 69.50 411.00
  Z"
/>
<path fill="#69e0e3" d="
  M 68.94 411.75
  Q 69.37 411.79 69.49 411.98
  Q 69.52 416.41 66.09 418.71
  A 0.36 0.36 0.0 0 1 65.53 418.34
  Q 66.23 414.57 68.94 411.75
  Z"
/>
<path fill="#69e0e3" d="
  M 36.28 426.21
  Q 36.21 426.69 36.34 427.20
  L 34.15 435.44
  A 0.44 0.44 0.0 0 1 33.51 435.71
  C 30.59 434.12 34.07 427.63 35.70 425.91
  Q 35.95 425.60 35.97 425.03
  C 36.15 423.55 35.64 421.84 35.89 420.67
  Q 36.70 417.03 39.09 414.47
  A 0.27 0.27 0.0 0 1 39.55 414.74
  L 36.51 424.07
  A 1.10 1.05 57.9 0 0 36.45 424.36
  L 36.28 426.21
  Z"
/>
<ellipse fill="#69e0e3" cx="0.00" cy="0.00" transform="translate(64.02,425.44) rotate(-65.4)" rx="2.72" ry="0.66"/>
<path fill="#02204a" d="
  M 35.97 425.03
  Q 35.95 425.60 35.70 425.91
  L 35.97 425.03
  Z"
/>
<path fill="#02204a" d="
  M 36.34 427.20
  Q 36.21 426.69 36.28 426.21
  Q 36.56 426.37 36.34 427.20
  Z"
/>
<ellipse fill="#02204a" cx="0.00" cy="0.00" transform="translate(23.32,432.13) rotate(-71.6)" rx="0.91" ry="0.27"/>
<path fill="#69e0e3" d="
  M 33.83 437.25
  Q 34.40 438.95 34.02 441.27
  Q 33.05 447.11 32.69 449.13
  A 3.70 3.60 48.7 0 0 32.64 450.10
  Q 32.98 454.82 31.97 459.84
  A 0.64 0.63 -78.0 0 1 31.21 460.34
  Q 30.03 460.08 29.05 459.43
  A 1.17 1.16 -77.0 0 1 28.52 458.57
  Q 28.19 455.01 29.33 451.03
  A 1.14 1.14 0.0 0 1 29.80 450.37
  L 31.54 449.14
  A 0.55 0.55 0.0 0 0 31.46 448.19
  Q 30.13 447.56 30.21 446.19
  C 30.44 442.43 30.65 439.83 33.18 437.11
  A 0.39 0.39 0.0 0 1 33.83 437.25
  Z"
/>
<ellipse fill="#69e0e3" cx="0.00" cy="0.00" transform="translate(21.57,444.17) rotate(-77.2)" rx="2.32" ry="0.50"/>
<ellipse fill="#69e0e3" cx="0.00" cy="0.00" transform="translate(49.28,457.25) rotate(-81.4)" rx="4.26" ry="1.37"/>
<ellipse fill="#69e0e3" cx="0.00" cy="0.00" transform="translate(20.06,457.88) rotate(-78.5)" rx="2.63" ry="0.99"/>
<ellipse fill="#69e0e3" cx="0.00" cy="0.00" transform="translate(29.87,467.57) rotate(-87.7)" rx="5.15" ry="2.51"/>
<ellipse fill="#69e0e3" cx="0.00" cy="0.00" transform="translate(39.53,468.13) rotate(-90.2)" rx="5.17" ry="2.35"/>
<path fill="#69e0e3" d="
  M 47.77 471.44
  A 0.50 0.50 0.0 0 1 47.27 470.94
  L 47.26 468.75
  A 2.57 1.09 89.8 0 1 48.34 466.18
  L 48.86 466.18
  A 2.57 1.09 89.8 0 1 49.96 468.75
  L 49.97 470.94
  A 0.50 0.50 0.0 0 1 49.47 471.44
  L 47.77 471.44
  Z"
/>
<path fill="#69e0e3" d="
  M 18.73 474.39
  A 0.53 0.53 0.0 0 1 18.20 473.86
  L 18.19 471.49
  A 3.80 1.34 89.8 0 1 19.52 467.69
  L 19.66 467.69
  A 3.80 1.34 89.8 0 1 21.01 471.49
  L 21.02 473.86
  A 0.53 0.53 0.0 0 1 20.49 474.39
  L 18.73 474.39
  Z"
/>
<ellipse fill="#69e0e3" cx="0.00" cy="0.00" transform="translate(30.16,480.23) rotate(-94.0)" rx="5.70" ry="2.82"/>
<rect fill="#69e0e3" x="-2.06" y="-4.19" transform="translate(39.72,479.95) rotate(-4.6)" width="4.12" height="8.38" rx="1.93"/>
<ellipse fill="#69e0e3" cx="0.00" cy="0.00" transform="translate(48.83,479.87) rotate(-93.7)" rx="2.48" ry="1.31"/>
<ellipse fill="#69e0e3" cx="0.00" cy="0.00" transform="translate(20.21,484.41) rotate(-99.2)" rx="3.95" ry="2.07"/>
<path fill="#02204a" d="
  M 704.41 550.89
  Q 696.78 564.04 681.51 566.76
  C 661.12 570.39 642.44 559.78 636.08 539.94
  C 631.75 526.43 632.92 510.93 640.58 498.90
  C 649.77 484.50 667.57 478.11 684.21 481.18
  C 697.87 483.70 709.09 492.87 713.08 506.07
  A 1.23 1.23 0.0 0 1 712.13 507.63
  L 696.54 510.50
  A 1.51 1.50 -18.2 0 1 694.91 509.68
  C 690.30 500.07 681.24 495.19 670.76 497.89
  C 657.56 501.30 652.33 514.26 653.39 526.78
  C 654.82 543.66 667.72 553.91 684.96 550.59
  C 694.17 548.81 701.75 541.08 702.20 531.52
  A 0.59 0.59 0.0 0 0 701.61 530.90
  L 668.35 530.90
  A 1.18 1.18 0.0 0 1 667.17 529.72
  L 667.17 519.32
  A 0.89 0.89 0.0 0 1 668.06 518.43
  L 720.39 518.43
  A 1.20 1.20 0.0 0 1 721.59 519.63
  L 721.59 564.19
  A 0.74 0.74 0.0 0 1 720.85 564.93
  L 708.15 564.93
  A 1.06 1.05 -3.0 0 1 707.10 563.99
  L 705.68 551.16
  A 0.68 0.68 0.0 0 0 704.41 550.89
  Z"
/>
<path fill="#02204a" d="
  M 960.48 507.45
  C 958.76 500.62 954.53 495.78 947.51 495.01
  C 941.40 494.33 932.63 496.77 932.44 504.19
  C 932.26 511.26 938.59 513.09 944.39 514.12
  Q 949.10 514.95 962.22 517.78
  C 972.30 519.96 981.90 526.25 982.87 537.48
  C 983.82 548.55 979.06 557.18 969.55 562.53
  C 961.73 566.92 952.24 568.06 943.51 567.56
  C 927.38 566.63 912.78 558.07 910.40 540.96
  A 0.69 0.69 0.0 0 1 910.96 540.19
  L 927.31 537.17
  A 0.97 0.97 0.0 0 1 928.43 537.95
  C 930.02 546.75 936.81 552.13 945.51 552.93
  C 951.85 553.52 958.90 552.61 962.63 547.15
  C 965.03 543.62 964.22 538.51 960.60 536.10
  Q 958.60 534.77 954.18 533.29
  C 945.03 530.21 928.13 530.78 918.69 521.32
  C 910.89 513.51 911.57 500.38 918.09 491.98
  C 926.83 480.72 943.63 478.56 956.64 481.91
  C 966.69 484.50 976.16 492.49 977.60 503.13
  A 0.75 0.75 0.0 0 1 977.03 503.97
  L 961.04 507.80
  A 0.47 0.46 76.4 0 1 960.48 507.45
  Z"
/>
<path fill="#02204a" d="
  M 146.11 529.36
  A 0.72 0.72 0.0 0 1 145.39 530.08
  L 112.99 530.09
  A 0.88 0.87 89.9 0 0 112.12 530.97
  L 112.22 548.09
  A 0.89 0.88 -0.1 0 0 113.12 548.96
  L 151.29 548.91
  A 0.76 0.75 89.9 0 1 152.04 549.67
  L 152.06 564.04
  A 0.97 0.96 -0.1 0 1 151.09 565.00
  L 94.30 564.95
  A 1.14 1.13 0.4 0 1 93.17 563.81
  L 93.15 483.82
  A 0.69 0.68 -89.6 0 1 93.83 483.14
  L 149.95 483.12
  A 0.80 0.79 89.6 0 1 150.74 483.91
  L 150.82 498.08
  A 0.94 0.94 0.0 0 1 149.88 499.03
  L 112.98 499.01
  A 0.86 0.85 -0.4 0 0 112.12 499.87
  L 112.17 515.47
  A 0.75 0.75 0.0 0 0 112.92 516.22
  L 145.35 516.18
  A 0.72 0.72 0.0 0 1 146.08 516.90
  L 146.11 529.36
  Z"
/>
<path fill="#02204a" d="
  M 218.98 542.42
  Q 219.38 542.42 219.53 542.03
  Q 233.87 506.16 242.70 484.10
  A 1.54 1.53 10.6 0 1 244.13 483.13
  L 267.77 483.13
  A 0.66 0.66 0.0 0 1 268.43 483.79
  L 268.43 564.20
  A 0.83 0.83 0.0 0 1 267.59 565.03
  L 251.15 564.97
  A 0.79 0.78 0.7 0 1 250.37 564.18
  Q 250.37 564.01 250.60 509.39
  Q 250.60 508.96 250.31 508.52
  A 0.29 0.29 0.0 0 0 249.81 508.57
  L 227.43 563.68
  A 2.04 2.03 -80.3 0 1 225.65 564.95
  Q 225.27 564.97 218.97 564.96
  Q 212.67 564.96 212.29 564.94
  A 2.04 2.03 80.4 0 1 210.51 563.67
  L 188.21 508.53
  A 0.29 0.29 0.0 0 0 187.71 508.48
  Q 187.41 508.92 187.41 509.35
  Q 187.57 563.97 187.57 564.14
  A 0.79 0.78 -0.7 0 1 186.79 564.93
  L 170.35 564.96
  A 0.83 0.83 0.0 0 1 169.51 564.13
  L 169.62 483.72
  A 0.66 0.66 0.0 0 1 170.28 483.06
  L 193.92 483.10
  A 1.54 1.53 -10.5 0 1 195.35 484.07
  Q 204.15 506.14 218.44 542.03
  Q 218.59 542.41 218.98 542.42
  Z"
/>
<path fill="#02204a" d="
  M 347.75 522.52
  A 0.50 0.50 0.0 0 0 347.78 523.47
  C 354.50 525.42 359.43 529.55 361.12 536.68
  C 363.29 545.80 360.11 556.23 351.22 560.72
  Q 342.82 564.96 332.23 564.94
  Q 312.29 564.92 290.76 565.03
  A 0.68 0.67 -0.0 0 1 290.08 564.36
  L 290.08 483.57
  A 0.51 0.50 1.6 0 1 290.62 483.07
  Q 291.57 483.12 331.74 483.20
  C 346.13 483.22 360.48 489.43 359.95 506.24
  C 359.70 514.34 355.51 519.71 347.75 522.52
  Z
  M 309.57 498.49
  L 309.67 516.47
  A 0.56 0.56 0.0 0 0 310.23 517.03
  L 329.86 516.92
  A 10.53 8.81 -0.3 0 0 340.34 508.06
  L 340.34 506.58
  A 10.53 8.81 -0.3 0 0 329.76 497.82
  L 310.13 497.93
  A 0.56 0.56 0.0 0 0 309.57 498.49
  Z
  M 309.59 530.76
  L 309.65 549.22
  A 0.95 0.95 0.0 0 0 310.61 550.16
  L 330.92 550.09
  A 11.26 8.83 -0.2 0 0 342.14 541.22
  L 342.14 538.52
  A 11.26 8.83 -0.2 0 0 330.84 529.73
  L 310.53 529.80
  A 0.95 0.95 0.0 0 0 309.59 530.76
  Z"
/>
<path fill="#02204a" d="
  M 415.63 548.82
  Q 402.38 548.80 400.88 548.76
  A 0.93 0.92 -78.9 0 0 399.98 549.37
  L 394.60 564.19
  A 1.13 1.12 -79.9 0 1 393.54 564.94
  L 374.90 564.91
  A 0.57 0.56 -80.1 0 1 374.37 564.15
  L 403.42 484.03
  A 1.41 1.40 -79.6 0 1 404.76 483.11
  Q 411.02 483.18 415.69 483.18
  Q 420.36 483.19 426.62 483.13
  A 1.41 1.40 79.7 0 1 427.96 484.06
  L 456.86 564.23
  A 0.57 0.56 80.2 0 1 456.33 564.99
  L 437.68 564.98
  A 1.13 1.12 80.0 0 1 436.62 564.23
  L 431.27 549.40
  A 0.93 0.92 79.0 0 0 430.37 548.78
  Q 428.88 548.83 415.63 548.82
  Z
  M 403.80 534.16
  A 0.65 0.65 0.0 0 0 404.42 535.01
  L 426.90 535.01
  A 0.65 0.65 0.0 0 0 427.52 534.16
  L 416.28 499.96
  A 0.65 0.65 0.0 0 0 415.04 499.96
  L 403.80 534.16
  Z"
/>
<path fill="#02204a" d="
  M 493.28 548.00
  L 525.82 548.00
  A 0.75 0.75 0.0 0 1 526.57 548.75
  L 526.57 564.23
  A 0.75 0.75 0.0 0 1 525.82 564.98
  L 473.74 564.98
  A 0.75 0.75 0.0 0 1 472.99 564.23
  L 472.99 483.87
  A 0.75 0.75 0.0 0 1 473.74 483.12
  L 491.78 483.12
  A 0.75 0.75 0.0 0 1 492.53 483.87
  L 492.53 547.25
  A 0.75 0.75 0.0 0 0 493.28 548.00
  Z"
/>
<path fill="#02204a" d="
  M 579.18 483.17
  Q 583.85 483.18 590.11 483.11
  A 1.41 1.41 0.0 0 1 591.45 484.04
  L 620.41 564.26
  A 0.57 0.56 80.1 0 1 619.88 565.02
  L 601.22 565.02
  A 1.13 1.12 80.0 0 1 600.16 564.27
  L 594.80 549.43
  A 0.93 0.92 79.0 0 0 593.90 548.81
  Q 592.40 548.86 579.14 548.85
  Q 565.88 548.85 564.39 548.80
  A 0.93 0.92 -79.0 0 0 563.48 549.41
  L 558.11 564.25
  A 1.13 1.12 -80.0 0 1 557.05 565.00
  L 538.39 564.98
  A 0.57 0.56 -80.1 0 1 537.86 564.22
  L 566.90 484.03
  A 1.41 1.41 0.0 0 1 568.24 483.10
  Q 574.50 483.17 579.18 483.17
  Z
  M 567.23 534.27
  A 0.57 0.57 0.0 0 0 567.77 535.02
  L 590.49 535.02
  A 0.57 0.57 0.0 0 0 591.03 534.27
  L 579.67 499.83
  A 0.57 0.57 0.0 0 0 578.59 499.83
  L 567.23 534.27
  Z"
/>
<path fill="#02204a" d="
  M 760.25 530.95
  L 760.25 548.07
  A 0.87 0.87 0.0 0 0 761.12 548.94
  L 799.23 548.94
  A 0.87 0.87 0.0 0 1 800.10 549.81
  L 800.10 564.08
  A 0.87 0.87 0.0 0 1 799.23 564.95
  L 742.13 564.95
  A 0.87 0.87 0.0 0 1 741.26 564.08
  L 741.26 483.99
  A 0.87 0.87 0.0 0 1 742.13 483.12
  L 798.03 483.12
  A 0.87 0.87 0.0 0 1 798.90 483.99
  L 798.90 498.15
  A 0.87 0.87 0.0 0 1 798.03 499.02
  L 761.12 499.02
  A 0.87 0.87 0.0 0 0 760.25 499.89
  L 760.25 515.33
  A 0.87 0.87 0.0 0 0 761.12 516.20
  L 793.32 516.20
  A 0.87 0.87 0.0 0 1 794.19 517.07
  L 794.19 529.21
  A 0.87 0.87 0.0 0 1 793.32 530.08
  L 761.12 530.08
  A 0.87 0.87 0.0 0 0 760.25 530.95
  Z"
/>
<path fill="#02204a" d="
  M 848.43 527.84
  Q 845.31 522.41 837.14 508.09
  Q 836.84 507.57 836.41 507.33
  A 0.27 0.26 13.9 0 0 836.02 507.56
  L 836.02 564.45
  A 0.54 0.53 -90.0 0 1 835.49 564.99
  L 818.57 564.99
  A 1.04 1.04 0.0 0 1 817.53 563.95
  L 817.53 483.75
  A 0.63 0.62 -90.0 0 1 818.15 483.12
  Q 838.86 483.13 839.01 483.15
  Q 839.50 483.20 839.99 483.25
  Q 840.66 483.33 842.38 486.37
  Q 852.15 503.61 861.72 520.27
  Q 864.84 525.70 873.00 540.02
  Q 873.30 540.54 873.73 540.78
  A 0.27 0.26 13.9 0 0 874.12 540.55
  L 874.12 483.66
  A 0.54 0.53 90.0 0 1 874.65 483.12
  L 891.57 483.12
  A 1.04 1.04 0.0 0 1 892.61 484.16
  L 892.61 564.36
  A 0.63 0.62 90.0 0 1 891.99 564.99
  Q 871.28 564.98 871.13 564.96
  Q 870.64 564.91 870.15 564.86
  Q 869.48 564.78 867.76 561.74
  Q 857.99 544.50 848.43 527.84
  Z"
/>
<ellipse fill="#69e0e3" cx="0.00" cy="0.00" transform="translate(31.19,492.45) rotate(-97.8)" rx="6.12" ry="3.19"/>
<ellipse fill="#69e0e3" cx="0.00" cy="0.00" transform="translate(9.05,488.16) rotate(-108.8)" rx="1.11" ry="0.64"/>
<ellipse fill="#69e0e3" cx="0.00" cy="0.00" transform="translate(40.82,491.62) rotate(-96.1)" rx="4.07" ry="2.21"/>
<ellipse fill="#69e0e3" cx="0.00" cy="0.00" transform="translate(49.72,490.84) rotate(-98.9)" rx="1.53" ry="0.96"/>
<ellipse fill="#69e0e3" cx="0.00" cy="0.00" transform="translate(21.44,497.60) rotate(-101.3)" rx="4.44" ry="2.27"/>
<path fill="#69e0e3" d="
  M 42.76 507.16
  C 41.64 505.25 39.75 502.07 41.39 499.85
  A 1.14 1.14 0.0 0 1 43.31 499.99
  Q 45.23 503.61 43.40 507.14
  A 0.37 0.37 0.0 0 1 42.76 507.16
  Z"
/>
<path fill="#69e0e3" d="
  M 34.74 500.93
  Q 36.41 505.11 36.31 508.75
  A 1.35 1.34 76.6 0 1 35.61 509.90
  C 32.40 511.65 30.86 506.94 30.13 504.73
  A 3.88 3.88 0.0 0 1 31.59 500.33
  L 31.93 500.09
  A 1.87 1.87 0.0 0 1 34.74 500.93
  Z"
/>
<ellipse fill="#69e0e3" cx="0.00" cy="0.00" transform="translate(11.05,502.03) rotate(-101.4)" rx="2.01" ry="0.97"/>
<ellipse fill="#69e0e3" cx="0.00" cy="0.00" transform="translate(24.00,510.44) rotate(-102.3)" rx="5.01" ry="2.50"/>
<path fill="#69e0e3" d="
  M 44.24 511.41
  Q 46.71 513.24 46.80 516.57
  A 0.80 0.80 0.0 0 1 45.95 517.39
  Q 44.67 517.29 44.50 515.95
  Q 44.02 512.23 43.89 511.64
  A 0.22 0.22 0.0 0 1 44.24 511.41
  Z"
/>
<path fill="#69e0e3" d="
  M 39.45 520.60
  A 0.52 0.52 0.0 0 1 39.08 521.24
  L 38.30 521.44
  A 3.97 3.70 75.1 0 1 33.71 518.56
  L 33.16 516.51
  A 3.97 3.70 75.1 0 1 35.72 511.72
  L 36.49 511.52
  A 0.52 0.52 0.0 0 1 37.13 511.89
  L 39.45 520.60
  Z"
/>
<ellipse fill="#69e0e3" cx="0.00" cy="0.00" transform="translate(13.99,515.83) rotate(-102.6)" rx="3.10" ry="1.34"/>
<ellipse fill="#69e0e3" cx="0.00" cy="0.00" transform="translate(27.27,523.39) rotate(-109.1)" rx="5.42" ry="2.73"/>
<ellipse fill="#69e0e3" cx="0.00" cy="0.00" transform="translate(48.82,525.74) rotate(-108.7)" rx="2.19" ry="1.20"/>
<ellipse fill="#69e0e3" cx="0.00" cy="0.00" transform="translate(39.76,528.86) rotate(-111.0)" rx="4.87" ry="2.34"/>
<path fill="#69e0e3" d="
  M 17.07 532.72
  A 0.46 0.46 0.0 0 1 16.53 532.36
  L 16.31 531.25
  A 6.53 1.57 78.7 0 1 16.57 524.54
  L 16.78 524.50
  A 6.53 1.57 78.7 0 1 19.60 530.59
  L 19.82 531.70
  A 0.46 0.46 0.0 0 1 19.46 532.24
  L 17.07 532.72
  Z"
/>
<ellipse fill="#69e0e3" cx="0.00" cy="0.00" transform="translate(4.92,528.54) rotate(-98.8)" rx="1.78" ry="0.70"/>
<ellipse fill="#69e0e3" cx="0.00" cy="0.00" transform="translate(31.39,535.55) rotate(-111.6)" rx="5.96" ry="3.20"/>
<ellipse fill="#69e0e3" cx="0.00" cy="0.00" transform="translate(52.96,537.01) rotate(-104.8)" rx="1.76" ry="0.73"/>
<ellipse fill="#69e0e3" cx="0.00" cy="0.00" transform="translate(44.31,540.30) rotate(-113.8)" rx="4.22" ry="2.10"/>
<ellipse fill="#69e0e3" cx="0.00" cy="0.00" transform="translate(22.09,542.27) rotate(-107.3)" rx="4.14" ry="2.12"/>
<ellipse fill="#69e0e3" cx="0.00" cy="0.00" transform="translate(9.63,542.55) rotate(-116.0)" rx="2.45" ry="1.19"/>
<ellipse fill="#69e0e3" cx="0.00" cy="0.00" transform="translate(36.53,547.82) rotate(-110.4)" rx="6.31" ry="3.34"/>
<ellipse fill="#69e0e3" cx="0.00" cy="0.00" transform="translate(58.16,547.57) rotate(-117.6)" rx="1.10" ry="0.73"/>
<ellipse fill="#69e0e3" cx="0.00" cy="0.00" transform="translate(49.84,551.66) rotate(-114.6)" rx="3.51" ry="2.02"/>
<ellipse fill="#69e0e3" cx="0.00" cy="0.00" transform="translate(27.76,555.21) rotate(-114.3)" rx="4.51" ry="2.49"/>
<ellipse fill="#69e0e3" cx="0.00" cy="0.00" transform="translate(15.19,556.22) rotate(-114.6)" rx="3.32" ry="1.50"/>
<ellipse fill="#69e0e3" cx="0.00" cy="0.00" transform="translate(42.50,559.61) rotate(-119.5)" rx="5.70" ry="3.24"/>
<ellipse fill="#69e0e3" cx="0.00" cy="0.00" transform="translate(55.59,562.65) rotate(-119.1)" rx="2.96" ry="1.75"/>
<ellipse fill="#69e0e3" cx="0.00" cy="0.00" transform="translate(34.31,567.41) rotate(-118.7)" rx="4.95" ry="2.67"/>
<ellipse fill="#69e0e3" cx="0.00" cy="0.00" transform="translate(49.28,570.99) rotate(-122.2)" rx="5.42" ry="2.93"/>
<ellipse fill="#69e0e3" cx="0.00" cy="0.00" transform="translate(21.95,569.57) rotate(-116.9)" rx="3.53" ry="1.86"/>
<ellipse fill="#69e0e3" cx="0.00" cy="0.00" transform="translate(62.45,572.96) rotate(-126.3)" rx="2.63" ry="1.49"/>
<ellipse fill="#69e0e3" cx="0.00" cy="0.00" transform="translate(41.68,579.47) rotate(-122.2)" rx="5.71" ry="2.95"/>
<ellipse fill="#69e0e3" cx="0.00" cy="0.00" transform="translate(56.61,581.68) rotate(-129.0)" rx="4.88" ry="2.55"/>
<ellipse fill="#69e0e3" cx="0.00" cy="0.00" transform="translate(29.71,582.41) rotate(-123.0)" rx="4.19" ry="2.36"/>
<ellipse fill="#69e0e3" cx="0.00" cy="0.00" transform="translate(70.09,582.63) rotate(-126.5)" rx="2.27" ry="1.15"/>
<ellipse fill="#69e0e3" cx="0.00" cy="0.00" transform="translate(49.84,590.75) rotate(-127.3)" rx="6.10" ry="3.30"/>
<ellipse fill="#69e0e3" cx="0.00" cy="0.00" transform="translate(18.57,588.54) rotate(-125.7)" rx="1.62" ry="0.95"/>
<path fill="#69e0e3" d="
  M 67.50 596.62
  C 65.03 594.89 62.39 594.53 61.67 591.00
  A 2.26 1.91 -87.6 0 1 64.15 588.29
  C 66.23 589.11 68.12 591.34 68.03 593.82
  Q 67.97 595.62 68.00 596.35
  A 0.32 0.32 0.0 0 1 67.50 596.62
  Z"
/>
<ellipse fill="#69e0e3" cx="0.00" cy="0.00" transform="translate(37.99,594.58) rotate(-126.2)" rx="4.77" ry="2.57"/>
<ellipse fill="#69e0e3" cx="0.00" cy="0.00" transform="translate(78.41,592.03) rotate(-137.4)" rx="1.19" ry="0.53"/>
<path fill="#02204a" d="
  M 754.18 615.02
  L 754.18 617.99
  A 1.44 1.44 0.0 0 1 753.16 619.37
  C 745.75 621.60 737.38 620.70 734.54 612.43
  Q 732.18 605.57 734.77 598.82
  C 737.90 590.65 747.34 589.51 754.42 592.71
  A 1.02 1.01 -66.9 0 1 754.94 594.01
  L 753.66 597.16
  A 0.95 0.94 -68.5 0 1 752.46 597.69
  Q 748.15 596.07 746.75 596.19
  Q 741.86 596.59 740.57 601.07
  C 739.34 605.33 739.36 612.56 744.10 614.67
  Q 746.44 615.71 753.08 614.14
  A 0.90 0.89 83.4 0 1 754.18 615.02
  Z"
/>
<path fill="#02204a" d="
  M 900.5198 607.9014
  A 12.28 12.28 0.0 0 1 888.3474 620.2881
  L 885.7475 620.3108
  A 12.28 12.28 0.0 0 1 873.3608 608.1384
  L 873.3202 603.4786
  A 12.28 12.28 0.0 0 1 885.4926 591.0919
  L 888.0925 591.0692
  A 12.28 12.28 0.0 0 1 900.4792 603.2416
  L 900.5198 607.9014
  Z
  M 893.9198 602.6657
  A 6.44 6.44 0.0 0 0 887.4573 596.2482
  L 886.4173 596.2519
  A 6.44 6.44 0.0 0 0 879.9998 602.7143
  L 880.0202 608.5543
  A 6.44 6.44 0.0 0 0 886.4827 614.9718
  L 887.5227 614.9681
  A 6.44 6.44 0.0 0 0 893.9402 608.5057
  L 893.9198 602.6657
  Z"
/>
<path fill="#02204a" d="
  M 970.8659 608.0637
  A 12.22 12.22 0.0 0 1 958.6246 620.2623
  L 955.9246 620.2576
  A 12.22 12.22 0.0 0 1 943.7259 608.0163
  L 943.7341 603.3163
  A 12.22 12.22 0.0 0 1 955.9754 591.1177
  L 958.6754 591.1224
  A 12.22 12.22 0.0 0 1 970.8741 603.3637
  L 970.8659 608.0637
  Z
  M 957.3341 595.8301
  A 9.77 7.30 -89.8 0 0 950.0000 605.5745
  A 9.77 7.30 -89.8 0 0 957.2659 615.3699
  A 9.77 7.30 -89.8 0 0 964.6000 605.6255
  A 9.77 7.30 -89.8 0 0 957.3341 595.8301
  Z"
/>
<path fill="#02204a" d="
  M 778.09 591.22
  Q 779.59 591.21 780.68 591.31
  A 1.75 1.75 0.0 0 1 782.18 592.46
  L 791.63 618.65
  A 1.00 0.99 -9.9 0 1 790.69 619.98
  L 786.74 619.98
  A 1.64 1.64 0.0 0 1 785.20 618.90
  L 783.47 614.12
  A 1.59 1.59 0.0 0 0 782.01 613.07
  Q 781.18 613.06 778.11 613.06
  Q 775.03 613.06 774.21 613.08
  A 1.59 1.59 0.0 0 0 772.75 614.13
  L 771.03 618.91
  A 1.64 1.64 0.0 0 1 769.49 620.00
  L 765.54 620.00
  A 1.00 0.99 9.8 0 1 764.60 618.68
  L 774.00 592.47
  A 1.75 1.75 0.0 0 1 775.50 591.31
  Q 776.59 591.22 778.09 591.22
  Z
  M 774.54 607.52
  A 0.31 0.31 0.0 0 0 774.84 607.93
  L 781.53 607.92
  A 0.31 0.31 0.0 0 0 781.83 607.51
  L 778.46 597.32
  A 0.31 0.31 0.0 0 0 777.87 597.32
  L 774.54 607.52
  Z"
/>
<path fill="#02204a" d="
  M 825.09 619.98
  L 820.41 619.98
  A 2.31 2.29 74.6 0 1 818.43 618.84
  Q 813.46 610.32 813.22 610.04
  Q 812.05 608.64 810.43 608.88
  A 1.32 1.31 -4.3 0 0 809.31 610.18
  L 809.31 619.00
  A 0.99 0.99 0.0 0 1 808.32 619.99
  L 803.87 619.99
  A 0.90 0.90 0.0 0 1 802.97 619.09
  L 802.97 592.63
  A 1.16 1.15 -2.1 0 1 804.04 591.48
  C 809.60 591.07 820.04 590.36 822.35 596.86
  Q 824.60 603.20 818.46 607.15
  A 0.99 0.99 0.0 0 0 818.19 608.55
  L 825.56 619.08
  A 0.57 0.57 0.0 0 1 825.09 619.98
  Z
  M 809.29 597.52
  L 809.29 602.92
  A 1.08 1.08 0.0 0 0 810.37 604.00
  L 811.98 604.00
  A 4.77 3.61 0.0 0 0 816.75 600.39
  L 816.75 600.05
  A 4.77 3.61 -0.0 0 0 811.98 596.44
  L 810.37 596.44
  A 1.08 1.08 0.0 0 0 809.29 597.52
  Z"
/>
<path fill="#02204a" d="
  M 837.15 592.41
  A 1.07 1.07 0.0 0 1 838.22 591.34
  L 847.54 591.37
  A 13.37 12.74 0.2 0 1 860.87 604.16
  L 860.85 607.24
  A 13.37 12.74 0.2 0 1 847.44 619.93
  L 838.12 619.90
  A 1.07 1.07 0.0 0 1 837.05 618.83
  L 837.15 592.41
  Z
  M 843.41 597.14
  L 843.29 614.06
  A 0.81 0.81 0.0 0 0 844.10 614.88
  L 846.36 614.89
  A 8.11 7.78 0.4 0 0 854.52 607.17
  L 854.54 604.19
  A 8.11 7.78 0.4 0 0 846.48 596.35
  L 844.22 596.34
  A 0.81 0.81 0.0 0 0 843.41 597.14
  Z"
/>
<path fill="#02204a" d="
  M 924.42 597.41
  A 0.59 0.59 0.0 0 0 923.94 596.49
  L 913.48 596.49
  A 1.67 1.67 0.0 0 1 911.81 594.82
  L 911.81 593.08
  A 1.74 1.74 0.0 0 1 913.55 591.34
  L 931.52 591.34
  A 1.07 1.06 -4.8 0 1 932.57 592.22
  C 932.85 593.79 931.91 596.06 930.98 597.40
  Q 922.95 608.98 919.36 614.34
  A 0.42 0.42 0.0 0 0 919.71 614.99
  L 931.91 614.99
  A 1.09 1.09 0.0 0 1 933.00 616.08
  L 933.00 618.80
  A 1.18 1.18 0.0 0 1 931.82 619.98
  L 912.56 619.98
  A 1.40 1.40 0.0 0 1 911.16 618.47
  Q 911.35 616.09 913.00 613.75
  Q 920.55 603.02 924.42 597.41
  Z"
/>
<ellipse fill="#69e0e3" cx="0.00" cy="0.00" transform="translate(58.69,601.50) rotate(-128.6)" rx="6.52" ry="3.52"/>
<ellipse fill="#69e0e3" cx="0.00" cy="0.00" transform="translate(73.97,601.92) rotate(-133.3)" rx="3.91" ry="2.01"/>
<ellipse fill="#69e0e3" cx="0.00" cy="0.00" transform="translate(27.68,601.65) rotate(-128.8)" rx="2.46" ry="1.19"/>
<ellipse fill="#69e0e3" cx="0.00" cy="0.00" transform="translate(47.20,606.05) rotate(-131.0)" rx="5.30" ry="2.82"/>
<ellipse fill="#69e0e3" cx="0.00" cy="0.00" transform="translate(68.60,611.66) rotate(-136.5)" rx="6.13" ry="3.29"/>
<ellipse fill="#69e0e3" cx="0.00" cy="0.00" transform="translate(83.54,610.93) rotate(-141.6)" rx="3.23" ry="1.77"/>
<path fill="#69e0e3" d="
  M 39.29 616.49
  Q 36.34 615.92 35.23 613.77
  A 1.81 1.50 72.4 0 1 36.27 611.20
  C 39.21 611.01 39.66 613.46 39.83 616.02
  A 0.45 0.45 0.0 0 1 39.29 616.49
  Z"
/>
<ellipse fill="#69e0e3" cx="0.00" cy="0.00" transform="translate(57.14,616.93) rotate(-133.9)" rx="5.90" ry="3.10"/>
<ellipse fill="#69e0e3" cx="0.00" cy="0.00" transform="translate(78.78,620.85) rotate(-141.1)" rx="5.69" ry="3.05"/>
<ellipse fill="#69e0e3" cx="0.00" cy="0.00" transform="translate(93.72,619.34) rotate(-141.1)" rx="2.67" ry="1.43"/>
<ellipse fill="#69e0e3" cx="0.00" cy="0.00" transform="translate(68.06,627.20) rotate(-138.9)" rx="6.36" ry="3.31"/>
<ellipse fill="#69e0e3" cx="0.00" cy="0.00" transform="translate(48.26,625.40) rotate(-137.7)" rx="3.66" ry="2.15"/>
<ellipse fill="#69e0e3" cx="0.00" cy="0.00" transform="translate(104.23,626.66) rotate(-139.5)" rx="1.98" ry="0.97"/>
<ellipse fill="#69e0e3" cx="0.00" cy="0.00" transform="translate(89.82,629.67) rotate(-140.4)" rx="5.14" ry="2.86"/>
<ellipse fill="#69e0e3" cx="0.00" cy="0.00" transform="translate(79.61,636.53) rotate(-143.1)" rx="6.92" ry="3.67"/>
<ellipse fill="#69e0e3" cx="0.00" cy="0.00" transform="translate(59.72,636.22) rotate(-139.9)" rx="4.43" ry="2.43"/>
<ellipse fill="#69e0e3" cx="0.00" cy="0.00" transform="translate(116.17,633.58) rotate(-146.7)" rx="0.74" ry="0.50"/>
<ellipse fill="#69e0e3" cx="0.00" cy="0.00" transform="translate(101.59,637.54) rotate(-145.7)" rx="4.40" ry="2.68"/>
<ellipse fill="#69e0e3" cx="0.00" cy="0.00" transform="translate(389.42,637.82) rotate(-32.1)" rx="0.76" ry="0.57"/>
<ellipse fill="#69e0e3" cx="0.00" cy="0.00" transform="translate(91.70,645.08) rotate(-146.1)" rx="6.47" ry="3.39"/>
<ellipse fill="#69e0e3" cx="0.00" cy="0.00" transform="translate(45.90,641.83) rotate(-149.5)" rx="1.27" ry="0.54"/>
<ellipse fill="#69e0e3" cx="0.00" cy="0.00" transform="translate(71.82,646.14) rotate(-142.4)" rx="5.17" ry="2.74"/>
<ellipse fill="#69e0e3" cx="0.00" cy="0.00" transform="translate(113.77,644.73) rotate(-153.9)" rx="3.93" ry="2.13"/>
<ellipse fill="#69e0e3" cx="0.00" cy="0.00" transform="translate(104.30,652.49) rotate(-151.5)" rx="5.90" ry="3.14"/>
<ellipse fill="#69e0e3" cx="0.00" cy="0.00" transform="translate(126.18,650.79) rotate(-159.0)" rx="3.64" ry="1.82"/>
<ellipse fill="#69e0e3" cx="0.00" cy="0.00" transform="translate(377.14,650.28) rotate(-34.9)" rx="1.84" ry="0.81"/>
<ellipse fill="#69e0e3" cx="0.00" cy="0.00" transform="translate(58.65,652.74) rotate(-142.5)" rx="2.42" ry="1.10"/>
<ellipse fill="#69e0e3" cx="0.00" cy="0.00" transform="translate(84.81,655.15) rotate(-147.0)" rx="5.70" ry="2.99"/>
<ellipse fill="#69e0e3" cx="0.00" cy="0.00" transform="translate(139.35,655.96) rotate(-161.3)" rx="2.88" ry="1.26"/>
<ellipse fill="#69e0e3" cx="0.00" cy="0.00" transform="translate(117.78,659.42) rotate(-152.7)" rx="5.47" ry="2.89"/>
<ellipse fill="#69e0e3" cx="0.00" cy="0.00" transform="translate(98.00,663.17) rotate(-149.3)" rx="6.29" ry="3.25"/>
<ellipse fill="#69e0e3" cx="0.00" cy="0.00" transform="translate(152.61,660.22) rotate(-163.8)" rx="2.11" ry="0.96"/>
<ellipse fill="#69e0e3" cx="0.00" cy="0.00" transform="translate(363.90,661.95) rotate(-39.3)" rx="2.59" ry="1.29"/>
<ellipse fill="#69e0e3" cx="0.00" cy="0.00" transform="translate(72.11,662.49) rotate(-146.9)" rx="3.10" ry="1.63"/>
<ellipse fill="#69e0e3" cx="0.00" cy="0.00" transform="translate(131.31,665.18) rotate(-159.6)" rx="4.75" ry="2.81"/>
<ellipse fill="#69e0e3" cx="0.00" cy="0.00" transform="translate(166.07,663.44) rotate(-178.9)" rx="1.22" ry="0.64"/>
<circle fill="#02204a" cx="338.81" cy="663.60" r="0.50"/>
<ellipse fill="#69e0e3" cx="0.00" cy="0.00" transform="translate(112.23,670.35) rotate(-155.8)" rx="6.84" ry="3.50"/>
<path fill="#02204a" d="
  M 122.15 668.32
  Q 122.05 668.20 122.11 667.95
  A 0.19 0.19 0.0 0 1 122.46 667.89
  Q 122.62 668.16 122.36 668.35
  A 0.16 0.16 0.0 0 1 122.15 668.32
  Z"
/>
<ellipse fill="#69e0e3" cx="0.00" cy="0.00" transform="translate(145.39,670.05) rotate(-166.6)" rx="4.47" ry="2.24"/>
<ellipse fill="#69e0e3" cx="0.00" cy="0.00" transform="translate(86.30,671.61) rotate(-154.6)" rx="3.94" ry="2.11"/>
<ellipse fill="#69e0e3" cx="0.00" cy="0.00" transform="translate(349.70,672.72) rotate(-33.3)" rx="3.44" ry="1.70"/>
<ellipse fill="#69e0e3" cx="0.00" cy="0.00" transform="translate(324.59,672.65) rotate(-24.4)" rx="1.85" ry="1.01"/>
<ellipse fill="#69e0e3" cx="0.00" cy="0.00" transform="translate(126.75,676.59) rotate(-157.4)" rx="7.32" ry="3.87"/>
<path fill="#69e0e3" d="
  M 156.29 671.69
  A 0.22 0.22 0.0 0 1 156.55 671.51
  L 160.61 672.35
  A 3.67 1.85 11.6 0 1 163.83 674.90
  L 163.82 674.96
  A 3.67 1.85 11.6 0 1 159.85 676.03
  L 155.79 675.20
  A 0.22 0.22 0.0 0 1 155.62 674.94
  L 156.29 671.69
  Z"
/>
<ellipse fill="#69e0e3" cx="0.00" cy="0.00" transform="translate(174.14,676.75) rotate(-166.9)" rx="3.18" ry="1.51"/>
<ellipse fill="#69e0e3" cx="0.00" cy="0.00" transform="translate(100.89,679.72) rotate(-154.2)" rx="4.82" ry="2.38"/>
<ellipse fill="#69e0e3" cx="0.00" cy="0.00" transform="translate(189.01,678.34) rotate(-1.0)" rx="1.90" ry="0.92"/>
<ellipse fill="#69e0e3" cx="0.00" cy="0.00" transform="translate(141.55,681.67) rotate(-163.1)" rx="6.98" ry="3.62"/>
<ellipse fill="#69e0e3" cx="0.00" cy="0.00" transform="translate(203.80,679.19) rotate(-174.4)" rx="0.89" ry="0.49"/>
<path fill="#69e0e3" d="
  M 312.12 680.31
  A 0.30 0.30 0.0 0 1 312.01 680.72
  L 311.45 681.06
  A 3.58 1.27 -31.3 0 1 307.73 681.84
  L 307.65 681.70
  A 3.58 1.27 -31.3 0 1 310.05 678.76
  L 310.61 678.41
  A 0.30 0.30 0.0 0 1 311.02 678.51
  L 312.12 680.31
  Z"
/>
<ellipse fill="#69e0e3" cx="0.00" cy="0.00" transform="translate(335.19,682.43) rotate(-28.1)" rx="4.33" ry="2.11"/>
<ellipse fill="#69e0e3" cx="0.00" cy="0.00" transform="translate(156.83,685.58) rotate(-169.1)" rx="6.32" ry="3.51"/>
<ellipse fill="#69e0e3" cx="0.00" cy="0.00" transform="translate(265.61,683.29) rotate(-14.2)" rx="1.47" ry="0.92"/>
<ellipse fill="#69e0e3" cx="0.00" cy="0.00" transform="translate(115.92,686.51) rotate(-157.5)" rx="5.21" ry="2.71"/>
<ellipse fill="#69e0e3" cx="0.00" cy="0.00" transform="translate(82.04,685.47) rotate(-148.1)" rx="1.38" ry="0.75"/>
<ellipse fill="#69e0e3" cx="0.00" cy="0.00" transform="translate(250.38,686.91) rotate(-3.2)" rx="2.38" ry="1.26"/>
<ellipse fill="#69e0e3" cx="0.00" cy="0.00" transform="translate(294.60,687.31) rotate(-16.6)" rx="3.37" ry="1.69"/>
<ellipse fill="#69e0e3" cx="0.00" cy="0.00" transform="translate(172.08,688.74) rotate(-171.9)" rx="5.80" ry="2.96"/>
<ellipse fill="#69e0e3" cx="0.00" cy="0.00" transform="translate(319.72,690.91) rotate(-23.4)" rx="4.81" ry="2.52"/>
<ellipse fill="#69e0e3" cx="0.00" cy="0.00" transform="translate(187.67,690.69) rotate(-174.7)" rx="4.89" ry="2.56"/>
<ellipse fill="#69e0e3" cx="0.00" cy="0.00" transform="translate(234.76,689.73) rotate(-4.0)" rx="3.11" ry="1.59"/>
<ellipse fill="#69e0e3" cx="0.00" cy="0.00" transform="translate(131.62,692.30) rotate(-162.6)" rx="5.95" ry="3.01"/>
<ellipse fill="#69e0e3" cx="0.00" cy="0.00" transform="translate(203.71,691.41) rotate(-177.3)" rx="4.35" ry="2.10"/>
<path fill="#69e0e3" d="
  M 214.82 692.37
  Q 217.35 687.47 222.96 690.00
  A 0.69 0.69 0.0 0 1 223.19 691.10
  Q 221.43 693.06 218.98 692.89
  Q 217.13 692.76 215.14 692.87
  A 0.34 0.34 0.0 0 1 214.82 692.37
  Z"
/>
<ellipse fill="#69e0e3" cx="0.00" cy="0.00" transform="translate(279.08,692.94) rotate(-15.8)" rx="3.99" ry="2.05"/>
<ellipse fill="#69e0e3" cx="0.00" cy="0.00" transform="translate(98.10,693.85) rotate(-151.8)" rx="2.48" ry="1.40"/>
<path fill="#69e0e3" d="
  M 141.84 693.80
  A 1.49 1.49 0.0 0 1 143.65 692.73
  L 149.08 694.11
  A 5.79 3.16 14.3 0 1 153.91 698.60
  A 5.79 3.16 14.3 0 1 147.52 700.23
  L 142.09 698.85
  A 1.49 1.49 0.0 0 1 141.02 697.04
  L 141.84 693.80
  Z"
/>
<ellipse fill="#69e0e3" cx="0.00" cy="0.00" transform="translate(263.04,697.59) rotate(-11.2)" rx="4.67" ry="2.42"/>
<ellipse fill="#69e0e3" cx="0.00" cy="0.00" transform="translate(303.62,698.36) rotate(-20.6)" rx="5.63" ry="2.70"/>
<ellipse fill="#69e0e3" cx="0.00" cy="0.00" transform="translate(163.74,700.55) rotate(-169.9)" rx="7.23" ry="3.69"/>
<ellipse fill="#69e0e3" cx="0.00" cy="0.00" transform="translate(246.86,700.92) rotate(-7.2)" rx="5.44" ry="2.58"/>
<ellipse fill="#69e0e3" cx="0.00" cy="0.00" transform="translate(114.20,700.83) rotate(-159.0)" rx="3.43" ry="1.63"/>
<ellipse fill="#69e0e3" cx="0.00" cy="0.00" transform="translate(180.31,702.92) rotate(-174.2)" rx="7.85" ry="3.98"/>
<ellipse fill="#69e0e3" cx="0.00" cy="0.00" transform="translate(230.30,703.21) rotate(-5.5)" rx="6.04" ry="3.10"/>
<ellipse fill="#69e0e3" cx="0.00" cy="0.00" transform="translate(196.93,704.11) rotate(-177.8)" rx="7.25" ry="3.73"/>
<ellipse fill="#69e0e3" cx="0.00" cy="0.00" transform="translate(213.63,704.25) rotate(-0.8)" rx="6.53" ry="3.33"/>
<ellipse fill="#69e0e3" cx="0.00" cy="0.00" transform="translate(287.21,704.77) rotate(-17.5)" rx="6.33" ry="3.04"/>
<ellipse fill="#69e0e3" cx="0.00" cy="0.00" transform="translate(131.03,706.87) rotate(-165.7)" rx="4.11" ry="2.03"/>
<ellipse fill="#69e0e3" cx="0.00" cy="0.00" transform="translate(270.27,709.90) rotate(-14.8)" rx="6.79" ry="3.19"/>
<ellipse fill="#69e0e3" cx="0.00" cy="0.00" transform="translate(147.91,711.36) rotate(-167.0)" rx="4.80" ry="2.67"/>
<ellipse fill="#69e0e3" cx="0.00" cy="0.00" transform="translate(253.07,713.83) rotate(-10.6)" rx="7.35" ry="3.78"/>
<ellipse fill="#69e0e3" cx="0.00" cy="0.00" transform="translate(165.00,714.97) rotate(-170.0)" rx="5.21" ry="2.61"/>
<ellipse fill="#69e0e3" cx="0.00" cy="0.00" transform="translate(235.67,716.41) rotate(-6.2)" rx="7.96" ry="3.99"/>
<ellipse fill="#69e0e3" cx="0.00" cy="0.00" transform="translate(182.71,717.13) rotate(-174.0)" rx="5.90" ry="3.10"/>
<ellipse fill="#69e0e3" cx="0.00" cy="0.00" transform="translate(217.96,717.92) rotate(-2.9)" rx="7.46" ry="3.70"/>
<ellipse fill="#69e0e3" cx="0.00" cy="0.00" transform="translate(200.38,718.11) rotate(-178.0)" rx="6.69" ry="3.32"/>
</svg>
